<svg width="23" height="23" viewBox="0 0 23 23" fill="none" xmlns="http://www.w3.org/2000/svg">
<path d="M5.65693 7.07078C5.26641 6.68025 5.26641 6.04709 5.65693 5.65657V5.65657C6.04746 5.26604 6.68062 5.26604 7.07115 5.65657L16.9706 15.5561C17.3612 15.9466 17.3612 16.5798 16.9706 16.9703V16.9703C16.5801 17.3608 15.9469 17.3608 15.5564 16.9703L5.65693 7.07078Z" fill="#00181A"/>
<path d="M15.5564 5.65681C15.9469 5.26629 16.5801 5.26628 16.9706 5.65679V5.65679C17.3612 6.04732 17.3612 6.68052 16.9706 7.07107L7.07114 16.9705C6.68062 17.361 6.04746 17.361 5.65694 16.9705V16.9705C5.26641 16.58 5.26641 15.9468 5.65693 15.5563L15.5564 5.65681Z" fill="#00181A"/>
</svg>
