<svg width="117" height="117" viewBox="0 0 117 117" fill="none" xmlns="http://www.w3.org/2000/svg">
<path d="M117 58.5C117 90.8087 90.8087 117 58.5 117C26.1913 117 0 90.8087 0 58.5C0 26.1913 26.1913 0 58.5 0C90.8087 0 117 26.1913 117 58.5Z" fill="#C8E1E3"/>
<path fill-rule="evenodd" clip-rule="evenodd" d="M86.9201 38.1421C89.0507 40.3071 89.0228 43.7894 86.8578 45.9201L54.3417 77.9201C52.2012 80.0266 48.7666 80.0266 46.626 77.9201L31.1421 62.682C28.9772 60.5513 28.9493 57.0691 31.0799 54.9041C33.2106 52.7391 36.6929 52.7112 38.8579 54.8418L50.4839 66.2833L79.1421 38.0799C81.3071 35.9493 84.7894 35.9772 86.9201 38.1421Z" fill="#00818A"/>
</svg>
