<!-- <svg width="94" height="94" viewBox="0 0 94 94" fill="none" xmlns="http://www.w3.org/2000/svg">
<path d="M89.4535 9.3711H54.5315C55.0002 7.0742 54.4104 4.6875 52.926 2.8711C51.4416 1.0547 49.2229 0 46.8752 0C44.5314 0 42.3088 1.0547 40.8244 2.8711C39.34 4.6875 38.7541 7.0742 39.2189 9.3711H4.2969C1.9258 9.37501 0.0039 11.2969 0 13.668V70.699C0.003906 73.0701 1.9258 74.992 4.2969 74.9959H33.9379L31.5941 84.3709H30.4691C27.4496 84.3748 25.0043 86.8201 25.0003 89.8397V92.1835C25.0003 92.5976 25.1644 92.996 25.4573 93.289C25.7503 93.582 26.1487 93.746 26.5628 93.746H67.1878C67.6019 93.746 68.0003 93.582 68.2933 93.289C68.5863 92.996 68.7504 92.5976 68.7504 92.1835V89.8397C68.7465 86.8202 66.3012 84.3749 63.2816 84.3709H62.1566L59.8128 74.9959H89.4538C91.8249 74.992 93.7468 73.0701 93.7507 70.699V13.668C93.7468 11.2969 91.8249 9.375 89.4538 9.3711H89.4535ZM46.8755 3.1211C48.5122 3.1211 50.0317 3.97266 50.8833 5.375C51.731 6.7734 51.7895 8.5156 51.0317 9.9688H51.0356C50.9419 10.0821 50.8677 10.211 50.813 10.3477C49.9185 11.7383 48.356 12.5508 46.7036 12.4922C45.0513 12.4297 43.5513 11.5039 42.7583 10.0508C41.9692 8.59771 42.0005 6.83601 42.8442 5.41411C43.6919 3.99221 45.2231 3.12111 46.8754 3.12111L46.8755 3.1211ZM40.6294 12.4961C42.1021 14.4649 44.4185 15.6211 46.8755 15.6211C49.3325 15.6211 51.6489 14.4649 53.1216 12.4961H54.3443L53.4068 17.1836H40.3448L39.4073 12.4961H40.6294ZM63.2814 87.4961C64.5744 87.4961 65.6252 88.5469 65.6252 89.8399V90.6212H28.1252V89.8399C28.1252 88.5469 29.176 87.4961 30.469 87.4961H63.2814ZM46.8754 81.2461C50.3246 81.2422 53.1215 78.4453 53.1254 74.9961H56.5942L58.938 84.3711H34.813L37.1568 74.9961H40.6256C40.6295 78.4453 43.4264 81.2422 46.8756 81.2461H46.8754ZM43.7504 74.9961H50.0004C50.0004 76.7227 48.602 78.1211 46.8754 78.1211C45.1488 78.1211 43.7504 76.7227 43.7504 74.9961ZM90.6254 70.6992C90.6254 71.3476 90.102 71.8711 89.4535 71.8711H4.2975C3.64906 71.8711 3.1256 71.3477 3.1256 70.6992V65.6211H90.6256L90.6254 70.6992ZM40.8244 42.1832H39.1877L39.6486 36.0309C40.1213 32.402 43.215 29.6832 46.8752 29.6832C50.5354 29.6832 53.6291 32.402 54.1018 36.0309L54.5667 42.1832H52.9261C53.0589 41.6715 53.1253 41.148 53.1253 40.6207V37.4957C53.1253 36.9059 52.7894 36.3629 52.262 36.0973L46.012 32.9723C45.4105 32.6715 44.6839 32.7887 44.2073 33.2653L41.0823 36.3903C40.7894 36.6832 40.6253 37.0817 40.6253 37.4958V40.6208C40.6253 41.1481 40.6917 41.6716 40.8245 42.1833L40.8244 42.1832ZM46.8752 43.7457C45.1486 43.7418 43.7541 42.3473 43.7502 40.6207V38.1441L45.6213 36.273L50.0002 38.4605V40.6207C49.9963 42.3473 48.6018 43.7418 46.8752 43.7457V43.7457ZM48.4377 46.6715V47.8863C48.0275 48.3082 47.465 48.5426 46.8752 48.5426C46.2854 48.5426 45.7229 48.3082 45.3127 47.8863V46.6754C46.3361 46.9371 47.4143 46.9371 48.4377 46.6754V46.6715ZM46.8752 51.6676C48.2814 51.6715 49.6291 51.1129 50.6252 50.1207L54.8752 50.8277V50.8316C56.2736 51.0582 57.3947 52.1089 57.715 53.4878L52.7462 54.73C52.0509 54.9058 51.5626 55.5269 51.5626 56.2456V62.4956H42.1876V56.2456C42.1876 55.5269 41.6993 54.9018 41.004 54.73L36.0352 53.4878C36.3594 52.1089 37.4805 51.0581 38.875 50.8316L43.125 50.1246V50.1207C44.1211 51.1129 45.4688 51.6676 46.875 51.6676H46.8752ZM57.8132 56.6832V62.4957H54.6882V57.4645L57.8132 56.6832ZM39.0632 57.4645V62.4957H35.9382V56.6832L39.0632 57.4645ZM90.6252 62.4957H60.9372V54.2965C60.945 51.0465 58.5934 48.2731 55.3864 47.7457L51.5622 47.1089V45.3081H56.2497C56.6833 45.3081 57.1013 45.1284 57.3942 44.8081C57.6911 44.4878 57.8395 44.062 57.8083 43.6284L57.2145 35.7573C57.2145 35.7339 57.2106 35.7066 57.2067 35.6792C56.5544 30.4683 52.1247 26.5581 46.8747 26.5581C41.6247 26.5581 37.195 30.4683 36.5427 35.6792C36.5388 35.7026 36.5349 35.73 36.5349 35.7573L35.9411 43.6284C35.9099 44.062 36.0583 44.4878 36.3552 44.8081C36.6482 45.1284 37.0661 45.3081 37.4997 45.3081H42.1872V47.1089L38.3591 47.7457C35.156 48.273 32.8044 51.0465 32.8122 54.2965V62.4957H3.12419V13.6677C3.12419 13.0192 3.64763 12.4958 4.29609 12.4958H36.2181L37.5306 19.0504C37.6751 19.7809 38.3158 20.3082 39.0618 20.3082H54.6868C55.4329 20.3082 56.0735 19.7809 56.218 19.0504L57.5305 12.4958H89.4525C90.1009 12.4958 90.6244 13.0192 90.6244 13.6677L90.6252 62.4957Z" fill="#00181A"/>
<path d="M48.8286 7.80911C48.8286 10.4146 44.9224 10.4146 44.9224 7.80911C44.9224 5.20361 48.8286 5.20361 48.8286 7.80911Z" fill="#00181A"/>
<path d="M85.9375 15.6211H64.0625C63.1992 15.6211 62.5 16.3203 62.5 17.1836V42.1836C62.5 42.5977 62.6641 42.9961 62.957 43.2891C63.25 43.5821 63.6484 43.7462 64.0625 43.7462H85.9375C86.3516 43.7462 86.75 43.5821 87.043 43.2891C87.336 42.9962 87.5001 42.5977 87.5001 42.1836V17.1836C87.5001 16.7696 87.336 16.3711 87.043 16.0781C86.7501 15.7851 86.3516 15.6211 85.9375 15.6211L85.9375 15.6211ZM79.6875 40.6211H70.3125V39.0586C70.3125 37.5664 71.0234 36.1641 72.2227 35.2813C73.9727 36.1524 76.0274 36.1524 77.7735 35.2813C78.9727 36.168 79.6837 37.5665 79.6876 39.0586L79.6875 40.6211ZM71.875 29.6831C71.875 28.4175 72.6367 27.2808 73.8047 26.7964C74.9727 26.312 76.3164 26.5816 77.2109 27.4722C78.1015 28.3667 78.3711 29.7105 77.8867 30.8784C77.4023 32.0464 76.2656 32.8081 75 32.8081C73.2734 32.8042 71.8789 31.4097 71.875 29.6831L71.875 29.6831ZM84.375 40.6211H82.8125V39.0586C82.8086 36.8164 81.8438 34.6836 80.1641 33.1992C81.4688 31.2851 81.6094 28.8047 80.5235 26.7578C79.4415 24.7109 77.3165 23.4297 75.0001 23.4297C72.6837 23.4297 70.5548 24.7109 69.4728 26.7617C68.3908 28.8086 68.5314 31.2851 69.8361 33.1992C68.1525 34.6836 67.1877 36.8164 67.1877 39.0586V40.6211H65.6252V18.7461H84.3752L84.375 40.6211Z" fill="#00181A"/>
</svg> -->


<svg width="100" height="100" viewBox="0 0 100 100" fill="none" xmlns="http://www.w3.org/2000/svg">
<path d="M92.8132 62.246V12.793H86.0163C84.239 5.5078 76.4851 0 67.2073 0C57.9295 0 50.1763 5.5078 48.3983 12.793H6.40626V62.227L0.039063 90.879L0 91.211C0 95.6251 3.6328 99.2188 8.125 99.2188H90.332C94.5312 99.2188 99.2187 95.9376 99.2187 91.211L92.8132 62.246ZM95.6257 89.609H3.59466L9.27826 64.004H89.9233L95.6257 89.609ZM67.2077 3.203C76.0358 3.203 83.2037 8.9452 83.2037 15.996C83.2037 23.0468 76.0162 28.789 67.2077 28.789C63.653 28.789 60.2546 27.8515 57.4225 26.0937L56.8951 25.7617L52.8912 26.5234L54.5318 23.8672L53.8092 22.9883C52.11 20.8985 51.192 18.4766 51.192 15.9961C51.2115 8.94528 58.3795 3.20308 67.208 3.20308L67.2077 3.203ZM9.60966 15.996H48.0077C48.0077 18.8671 48.9061 21.6405 50.6444 24.1015L46.328 31.0742L56.2889 29.1601C59.5116 31.0351 63.2811 32.0117 67.2269 32.0117C77.8129 32.0117 86.4259 24.8242 86.4259 16.0157H89.629V60.8207H9.60896L9.60966 15.996ZM90.3327 96.016H8.12566C5.99676 96.016 4.19986 94.6683 3.51626 92.8129H95.6253C94.7268 94.7074 92.4026 96.016 90.3323 96.016H90.3327Z" fill="#00181A"/>
<path d="M41.6021 86.4251H57.618V76.8157H41.6021V86.4251ZM44.8051 80.0189H54.4146V83.222H44.8051V80.0189Z" fill="#00181A"/>
<path d="M39.9033 35.8981L40.1376 35.4293C40.2353 35.2145 40.3329 35.0192 40.4306 34.8043C40.6064 34.4332 40.7431 34.0817 40.8994 33.7105C41.0165 33.4176 41.1142 33.1441 41.1923 32.8512C41.2509 32.6363 41.329 32.441 41.3681 32.2262C41.4853 31.7769 41.5829 31.3277 41.6611 30.8785C41.6806 30.7613 41.7001 30.6245 41.7197 30.5074C41.7978 29.9996 41.8369 29.5113 41.8369 29.0426C41.8369 28.359 41.7587 27.6949 41.6415 27.0699C40.7236 22.5972 36.7587 19.2183 32.0126 19.2183C27.2665 19.2183 23.3017 22.5972 22.3837 27.0699C22.247 27.7144 22.1884 28.3785 22.1884 29.0426C22.1884 29.5113 22.2275 29.9996 22.3056 30.5074C22.3252 30.6246 22.3447 30.7613 22.3642 30.8785C22.4423 31.3277 22.54 31.7769 22.6572 32.2262C22.7158 32.441 22.7744 32.6363 22.833 32.8512C22.9306 33.1441 23.0283 33.4176 23.1259 33.7105C23.2627 34.0816 23.4189 34.4527 23.5947 34.8238C23.6923 35.0387 23.79 35.234 23.8877 35.4293C23.9658 35.5855 24.0244 35.7613 24.122 35.9176C18.4579 37.7535 14.415 43.2418 14.415 49.5506V57.617H49.61V49.5506C49.61 43.242 45.567 37.7346 39.903 35.8986L39.9033 35.8981ZM38.5947 29.8629V29.9019C38.3603 31.9136 37.4033 34.2378 36.0361 35.9566L35.997 36.0152C34.8447 37.441 33.4384 38.398 32.0126 38.398C30.5868 38.398 29.1806 37.4215 28.0282 35.9957L27.9891 35.9567C26.6414 34.2575 25.6649 31.9333 25.45 29.9215V29.8824C25.411 29.5894 25.411 29.316 25.411 29.0426C25.411 25.3903 28.3798 22.4215 32.0321 22.4215C35.6844 22.4215 38.6532 25.3903 38.6532 29.0426C38.6336 29.2965 38.6141 29.5894 38.5946 29.8629L38.5947 29.8629ZM46.4072 54.4139H17.5982V49.5506C17.5982 44.2967 21.1724 39.7654 26.1334 38.6916C27.735 40.4299 29.7467 41.6018 31.9928 41.6018C34.2584 41.6018 36.2506 40.4104 37.8522 38.6721C42.7545 39.7073 46.3874 44.2385 46.3874 49.5311V54.4139H46.4072Z" fill="#00181A"/>
<path d="M57.6182 9.60889H76.8172V12.812H57.6182V9.60889Z" fill="#00181A"/>
<path d="M57.6182 17.5969H76.8172V20.8H57.6182V17.5969Z" fill="#00181A"/>
<path d="M68.8091 44.804H73.6138V48.0071H68.8091V44.804Z" fill="#00181A"/>
<path d="M76.8174 44.804H81.6221V48.0071H76.8174V44.804Z" fill="#00181A"/>
<path d="M60.8213 44.804H65.626V48.0071H60.8213V44.804Z" fill="#00181A"/>
<path d="M57.6182 54.4141H84.8252V57.6172H57.6182V54.4141Z" fill="#00181A"/>
</svg>
